<svg width="261" height="261" version="1.1" xmlns="http://www.w3.org/2000/svg" desc="Created with imagetracer.js version 1.2.6" ><path fill="rgb(2,8,253)" stroke="rgb(2,8,253)" stroke-width="1" opacity="0.996078431372549" d="M 134.5 3 Q 146 1.5 152.5 5 L 154 4.5 Q 153.2 7.1 156.5 6 L 158 5.5 L 157.5 7 Q 173.9 14.6 184 28.5 L 195 45.5 L 200 57.5 L 204 73.5 L 205 94.5 L 204 95.5 L 204 103.5 Q 201.4 106.4 202 112.5 L 198 124.5 Q 189.1 146.1 172.5 160 L 164 166.5 L 165.5 167 L 167 166.5 L 166 167.5 L 166 206.5 L 164.5 208 L 160.5 210 L 161 208.5 L 161 169.5 L 159.5 169 L 146.5 173 L 146.5 172 L 157.5 167 L 164 162 Q 170.8 150.1 181 140.5 L 191 123.5 L 194 115.5 L 198 96.5 L 198 80.5 L 195 64.5 L 186 43.5 Q 177.3 29.2 164.5 19 L 154.5 12 Q 145.9 6.6 134.5 4 L 134.5 3 Z " /><path fill="rgb(2,8,253)" stroke="rgb(2,8,253)" stroke-width="1" opacity="0.996078431372549" d="M 182.5 19 L 201.5 26 L 201.5 24 L 202.5 27 L 204.5 28 L 206 27.5 Q 205.3 29.8 207.5 29 L 223 42.5 Q 241 61.5 250 89.5 L 249 89.5 Q 238.7 62.3 217.5 46 L 203.5 36 L 199.5 35 L 198.5 36 L 195 32.5 L 183.5 20 L 182.5 19 Z " /><path fill="rgb(2,8,253)" stroke="rgb(2,8,253)" stroke-width="1" opacity="0.996078431372549" d="M 199.5 37 L 200.5 39 L 199.5 37 Z " /><path fill="rgb(2,8,253)" stroke="rgb(2,8,253)" stroke-width="1" opacity="0.996078431372549" d="M 201.5 40 L 202.5 42 L 201.5 40 Z " /><path fill="rgb(2,8,253)" stroke="rgb(2,8,253)" stroke-width="1" opacity="0.996078431372549" d="M 72.5 44 L 75 44.5 L 72.5 45 L 72.5 44 Z " /><path fill="rgb(2,8,253)" stroke="rgb(2,8,253)" stroke-width="1" opacity="0.996078431372549" d="M 83.5 54 L 104.5 55 L 127.5 62 Q 147.8 70.7 161 86.5 L 167.5 95 L 169 95.5 Q 166.5 97 170 98.5 L 174 111.5 L 174 116.5 L 173 116.5 L 172 112.5 L 165.5 103 Q 163.3 103.8 164 101.5 L 146.5 82 L 132.5 72 L 119.5 66 L 97.5 61 L 81.5 61 L 65.5 64 L 44.5 73 Q 30.2 81.7 20 94.5 Q 9.5 107 4.5 125 L 4 112.5 L 6 106.5 L 5.5 105 Q 8.1 105.8 7 102.5 L 6.5 101 L 8 101.5 Q 15.6 85.1 29.5 75 L 46.5 64 L 58.5 59 L 83.5 54 Z " /><path fill="rgb(2,8,253)" stroke="rgb(2,8,253)" stroke-width="1" opacity="0.996078431372549" d="M 27.5 55 L 28 56.5 L 26 59.5 L 23 71.5 L 24 73.5 L 15.5 84 L 14 77.5 L 27.5 55 Z " /><path fill="rgb(2,8,253)" stroke="rgb(2,8,253)" stroke-width="1" opacity="0.996078431372549" d="M 34.5 62 L 32.5 65 L 34.5 62 Z " /><path fill="rgb(2,8,253)" stroke="rgb(2,8,253)" stroke-width="1" opacity="0.996078431372549" d="M 150.5 68 L 151.5 70 L 150.5 68 Z " /><path fill="rgb(2,8,253)" stroke="rgb(2,8,253)" stroke-width="1" opacity="0.996078431372549" d="M 156.5 75 L 157.5 77 L 156.5 75 Z " /><path fill="rgb(2,8,253)" stroke="rgb(2,8,253)" stroke-width="1" opacity="0.996078431372549" d="M 112.5 90 L 111.5 92 L 112.5 90 Z " /><path fill="rgb(2,8,253)" stroke="rgb(2,8,253)" stroke-width="1" opacity="0.996078431372549" d="M 77.5 106 L 76.5 108 L 77.5 106 Z " /><path fill="rgb(2,8,253)" stroke="rgb(2,8,253)" stroke-width="1" opacity="0.996078431372549" d="M 70.5 112 L 68.5 115 L 70.5 112 Z " /><path fill="rgb(2,8,253)" stroke="rgb(2,8,253)" stroke-width="1" opacity="0.996078431372549" d="M 191.5 148 L 188.5 152 L 191.5 148 Z " /><path fill="rgb(2,8,253)" stroke="rgb(2,8,253)" stroke-width="1" opacity="0.996078431372549" d="M 47.5 153 L 48 155.5 L 47.5 157 Q 49.8 156.3 49 158.5 L 51 162.5 L 49 162.5 L 51.5 168 L 52 166.5 L 51.5 165 L 56 172.5 L 54 171.5 L 52.5 168 L 52 170.5 L 62 189.5 L 80.5 210 Q 94.1 221.9 112.5 229 L 135.5 235 L 154.5 236 L 155.5 235 L 165.5 235 L 182.5 231 L 203.5 222 Q 220.5 211.5 233 196.5 L 243 182.5 L 249.5 168 L 250 170.5 Q 238.5 201.5 216.5 222 L 209.5 228 L 206 229 L 205.5 231 L 203.5 231 L 202 231.5 Q 204.3 232.8 201.5 234 L 201.5 232 L 178.5 241 L 167.5 243 L 159.5 243 L 158.5 244 L 142.5 244 L 141.5 243 L 133.5 243 L 122.5 241 L 98.5 232 Q 80.2 222.8 67 208.5 L 50 185.5 L 44 172.5 L 44 164.5 L 47.5 153 Z " /><path fill="rgb(2,8,253)" stroke="rgb(2,8,253)" stroke-width="1" opacity="0.996078431372549" d="M 101.5 165 L 102.5 167 L 101.5 165 Z " /><path fill="rgb(2,8,253)" stroke="rgb(2,8,253)" stroke-width="1" opacity="0.996078431372549" d="M 58.5 177 L 59.5 179 L 58.5 177 Z " /><path fill="rgb(2,8,253)" stroke="rgb(2,8,253)" stroke-width="1" opacity="0.996078431372549" d="M 60.5 180 L 62.5 183 L 60.5 180 Z " /><path fill="rgb(2,8,253)" stroke="rgb(2,8,253)" stroke-width="1" opacity="0.996078431372549" d="M 64.5 185 L 72.5 194 L 64.5 185 Z " /><path fill="rgb(2,8,253)" stroke="rgb(2,8,253)" stroke-width="1" opacity="0.996078431372549" d="M 76.5 196 L 77.5 198 L 76.5 196 Z " /><path fill="rgb(2,8,253)" stroke="rgb(2,8,253)" stroke-width="1" opacity="0.996078431372549" d="M 80.5 199 L 81.5 201 L 80.5 199 Z " /><path fill="rgb(2,8,253)" stroke="rgb(2,8,253)" stroke-width="1" opacity="0.996078431372549" d="M 112.5 213 L 115 213.5 L 112.5 214 L 112.5 213 Z " /><path fill="rgb(2,8,253)" stroke="rgb(2,8,253)" stroke-width="1" opacity="0.996078431372549" d="M 59.5 222 L 60.5 224 L 59.5 222 Z " /><path fill="rgb(2,8,253)" stroke="rgb(2,8,253)" stroke-width="1" opacity="0.996078431372549" d="M 62.5 226 Q 70.7 236.8 83 243.5 L 78.5 245 Q 66.6 240.4 58 232.5 L 59.5 232 L 69.5 235 L 62.5 226 Z " /><path fill="rgb(2,8,253)" stroke="rgb(2,8,253)" stroke-width="1" opacity="0.996078431372549" d="M 125.5 255 L 128 255.5 L 125.5 256 L 125.5 255 Z " /><path fill="rgb(2,8,253)" stroke="rgb(2,8,253)" stroke-width="1" opacity="0.996078431372549" d="M 132.5 255 L 135 255.5 L 132.5 256 L 132.5 255 Z " /><path fill="rgb(17,71,243)" stroke="rgb(17,71,243)" stroke-width="1" opacity="0.984313725490196" d="M 119.5 2 L 124 2.5 L 119.5 3 L 119.5 2 Z " /><path fill="rgb(17,71,243)" stroke="rgb(17,71,243)" stroke-width="1" opacity="0.984313725490196" d="M 136.5 2 L 141 2.5 L 136.5 3 L 136.5 2 Z " /><path fill="rgb(17,71,243)" stroke="rgb(17,71,243)" stroke-width="1" opacity="0.984313725490196" d="M 99.5 13 L 119.5 13 L 135.5 17 Q 154.3 23.7 166 37.5 Q 177.7 49.8 183 68.5 Q 182.4 74.6 185 77.5 L 185 99.5 L 181 114.5 L 176.5 123 L 175 119.5 L 174 109.5 L 169 95.5 L 170 94.5 L 170 82.5 L 168 71.5 L 163 59.5 Q 156.9 48.5 147.5 41 Q 138.9 33.6 126.5 30 L 116.5 28 L 102.5 28 L 87.5 32 Q 77.2 36.2 70 43.5 L 70.5 45 L 68.5 45 Q 52.5 48.5 41.5 57 L 42 55.5 Q 48.7 38.7 62.5 29 L 83.5 17 L 99.5 13 Z " /><path fill="rgb(17,71,243)" stroke="rgb(17,71,243)" stroke-width="1" opacity="0.984313725490196" d="M 62.5 21 L 61.5 23 L 62.5 21 Z " /><path fill="rgb(17,71,243)" stroke="rgb(17,71,243)" stroke-width="1" opacity="0.984313725490196" d="M 56.5 25 L 55.5 27 L 56.5 25 Z " /><path fill="rgb(17,71,243)" stroke="rgb(17,71,243)" stroke-width="1" opacity="0.984313725490196" d="M 206.5 27 L 207.5 29 L 206.5 27 Z " /><path fill="rgb(17,71,243)" stroke="rgb(17,71,243)" stroke-width="1" opacity="0.984313725490196" d="M 52.5 28 L 51.5 30 L 52.5 28 Z " /><path fill="rgb(17,71,243)" stroke="rgb(17,71,243)" stroke-width="1" opacity="0.984313725490196" d="M 47.5 32 L 45.5 35 L 47.5 32 Z " /><path fill="rgb(17,71,243)" stroke="rgb(17,71,243)" stroke-width="1" opacity="0.984313725490196" d="M 35.5 44 L 33.5 47 L 35.5 44 Z " /><path fill="rgb(17,71,243)" stroke="rgb(17,71,243)" stroke-width="1" opacity="0.984313725490196" d="M 213.5 63 Q 229 77 237 98.5 L 242 121.5 L 242 136.5 L 238 156.5 L 230 174.5 Q 221.6 188.6 209.5 199 Q 196 211 176.5 217 L 161.5 220 L 139.5 220 L 124 216.5 L 152.5 213 Q 164.4 209.8 173 204 L 173 163.5 L 174.5 163 L 182 158 L 182 196.5 L 183.5 197 L 206 176.5 Q 215.1 166.1 220 151.5 L 223 139.5 L 223 118.5 L 220 106.5 L 216 97.5 L 216 75.5 L 213.5 63 Z " /><path fill="rgb(17,71,243)" stroke="rgb(17,71,243)" stroke-width="1" opacity="0.984313725490196" d="M 18.5 68 L 17.5 70 L 18.5 68 Z " /><path fill="rgb(17,71,243)" stroke="rgb(17,71,243)" stroke-width="1" opacity="0.984313725490196" d="M 241.5 68 L 242.5 70 L 241.5 68 Z " /><path fill="rgb(17,71,243)" stroke="rgb(17,71,243)" stroke-width="1" opacity="0.984313725490196" d="M 154.5 72 L 156.5 75 L 154.5 72 Z " /><path fill="rgb(17,71,243)" stroke="rgb(17,71,243)" stroke-width="1" opacity="0.984313725490196" d="M 78.5 74 L 100.5 74 L 120.5 80 L 133 87.5 L 124.5 88 L 123.5 89 L 121.5 89 L 118.5 90 L 115.5 89 L 104.5 92 L 101.5 90 Q 96.8 91.3 95.5 89 L 83.5 89 L 72.5 91 L 60.5 96 Q 49.8 102.3 42 111.5 Q 34.6 120.1 31 132.5 L 29 142.5 L 29 156.5 L 33 171.5 L 43.5 188 L 45 187.5 L 45 189.5 Q 47.2 204.8 54 215.5 L 51.5 214 L 43.5 210 L 30 196.5 Q 20.7 185.3 16 169.5 L 14 159.5 L 14 139.5 Q 16.7 122.7 24 110.5 Q 32 98 43.5 89 L 58.5 80 L 78.5 74 Z " /><path fill="rgb(17,71,243)" stroke="rgb(17,71,243)" stroke-width="1" opacity="0.984313725490196" d="M 158.5 97 L 159.5 99 L 158.5 97 Z " /><path fill="rgb(17,71,243)" stroke="rgb(17,71,243)" stroke-width="1" opacity="0.984313725490196" d="M 3.5 118 L 4 122.5 L 3 122.5 L 3.5 118 Z " /><path fill="rgb(17,71,243)" stroke="rgb(17,71,243)" stroke-width="1" opacity="0.984313725490196" d="M 64.5 118 L 63.5 120 L 64.5 118 Z " /><path fill="rgb(17,71,243)" stroke="rgb(17,71,243)" stroke-width="1" opacity="0.984313725490196" d="M 256.5 118 L 257 122.5 L 256 122.5 L 256.5 118 Z " /><path fill="rgb(17,71,243)" stroke="rgb(17,71,243)" stroke-width="1" opacity="0.984313725490196" d="M 3.5 135 L 4 139.5 L 3 139.5 L 3.5 135 Z " /><path fill="rgb(17,71,243)" stroke="rgb(17,71,243)" stroke-width="1" opacity="0.984313725490196" d="M 256.5 135 L 257 139.5 L 256 139.5 L 256.5 135 Z " /><path fill="rgb(17,71,243)" stroke="rgb(17,71,243)" stroke-width="1" opacity="0.984313725490196" d="M 185.5 154 L 184.5 156 L 185.5 154 Z " /><path fill="rgb(17,71,243)" stroke="rgb(17,71,243)" stroke-width="1" opacity="0.984313725490196" d="M 242.5 188 L 241.5 190 L 242.5 188 Z " /><path fill="rgb(17,71,243)" stroke="rgb(17,71,243)" stroke-width="1" opacity="0.984313725490196" d="M 22.5 196 L 23.5 198 L 22.5 196 Z " /><path fill="rgb(17,71,243)" stroke="rgb(17,71,243)" stroke-width="1" opacity="0.984313725490196" d="M 26.5 202 L 27.5 204 L 26.5 202 Z " /><path fill="rgb(17,71,243)" stroke="rgb(17,71,243)" stroke-width="1" opacity="0.984313725490196" d="M 29.5 206 L 30.5 208 L 29.5 206 Z " /><path fill="rgb(17,71,243)" stroke="rgb(17,71,243)" stroke-width="1" opacity="0.984313725490196" d="M 33.5 211 L 35.5 214 L 33.5 211 Z " /><path fill="rgb(17,71,243)" stroke="rgb(17,71,243)" stroke-width="1" opacity="0.984313725490196" d="M 45.5 223 L 47.5 226 L 45.5 223 Z " /><path fill="rgb(17,71,243)" stroke="rgb(17,71,243)" stroke-width="1" opacity="0.984313725490196" d="M 207.5 229 L 206.5 231 L 207.5 229 Z " /><path fill="rgb(17,71,243)" stroke="rgb(17,71,243)" stroke-width="1" opacity="0.984313725490196" d="M 69.5 240 L 70.5 242 L 69.5 240 Z " /><path fill="rgb(8,34,249)" stroke="rgb(8,34,249)" stroke-width="1" opacity="0.9921568627450981" d="M 118.5 2 L 123.5 3 Q 125 0.5 130.5 2 L 132.5 2 L 136 2.5 L 134 3.5 Q 163 12 179 33.5 Q 189.6 46.4 195 64.5 L 198 80.5 L 198 96.5 L 194 115.5 L 191 123.5 L 181 140.5 L 171.5 151 L 172 149.5 Q 176.2 143.2 176 132.5 L 176 128.5 L 174 120 Q 177 118.8 176 122.5 L 177 122.5 L 181 114.5 L 185 99.5 L 185 77.5 L 180 59.5 L 175 49.5 L 160.5 32 Q 148.2 20.3 129.5 15 L 119.5 13 L 99.5 13 Q 66.2 19.7 49 42.5 L 42 55.5 L 44 55.5 L 41 56.5 L 39.5 59 L 23 72 L 28 55.5 L 27 54.5 L 30 51.5 L 44.5 35 Q 60.8 20.3 82.5 11 L 94.5 8 L 97.5 6 L 112.5 4 L 118.5 2 Z " /><path fill="rgb(8,34,249)" stroke="rgb(8,34,249)" stroke-width="1" opacity="0.9921568627450981" d="M 213.5 33 L 215.5 36 L 213.5 33 Z " /><path fill="rgb(8,34,249)" stroke="rgb(8,34,249)" stroke-width="1" opacity="0.9921568627450981" d="M 198.5 34 Q 219.6 43.9 233 61.5 Q 242.1 71.4 247.5 85 L 249 84.5 L 248 86.5 L 249 90 L 251 90.5 L 250 92.5 L 252 92.5 L 251 96 Q 253.7 94.9 253 97.5 Q 250.5 99 254 100.5 Q 253.3 106.2 256 108.5 L 255 111.5 L 257 117.5 L 256 122.5 L 257 123.5 L 257 134.5 L 256 139.5 L 257 141.5 L 255 148.5 L 255 150.5 L 254 157.5 L 252 159.5 L 253 162 Q 250.3 160.9 251 163.5 L 252 165.5 L 250 165.5 L 251 167.5 L 249 168 L 248 172.5 L 248.5 174 L 247 173.5 Q 236.7 197.2 217.5 212 L 203.5 222 L 185.5 230 L 165.5 235 L 145.5 236 L 144.5 235 L 135.5 235 L 125.5 233 L 105.5 226 Q 84.9 216.6 71 200.5 L 56 179.5 L 49 162.5 L 51 163.5 Q 58.3 182.3 72.5 194 Q 82.8 203.2 96.5 209 L 112.5 214 L 134 215.5 L 124 216.5 L 139.5 220 L 161.5 220 L 176.5 217 L 193.5 210 Q 209 201.5 220 188.5 Q 231.7 175.2 238 156.5 L 242 136.5 L 242 121.5 L 238 101.5 L 234 91.5 Q 226.4 74.6 213.5 63 Q 210.9 63.8 212 60.5 L 206 46.5 L 198.5 34 Z " /><path fill="rgb(8,34,249)" stroke="rgb(8,34,249)" stroke-width="1" opacity="0.9921568627450981" d="M 223.5 43 L 225.5 46 L 223.5 43 Z " /><path fill="rgb(8,34,249)" stroke="rgb(8,34,249)" stroke-width="1" opacity="0.9921568627450981" d="M 231.5 53 L 232.5 55 L 231.5 53 Z " /><path fill="rgb(8,34,249)" stroke="rgb(8,34,249)" stroke-width="1" opacity="0.9921568627450981" d="M 81.5 61 L 97.5 61 L 124.5 68 Q 143.3 76.7 156 91.5 L 164 101.5 L 158.5 97 L 145.5 90 L 133.5 88 Q 124.7 80.8 112.5 77 L 100.5 74 L 78.5 74 L 63.5 78 L 50.5 84 Q 38 92 29 103.5 L 24 110.5 L 16 129.5 L 14 139.5 L 14 159.5 L 16 169.5 L 22 184.5 Q 30.4 199.6 43.5 210 L 52.5 215 L 53 213.5 L 52.5 212 Q 59.6 225.9 71 235.5 L 69.5 235 L 58.5 232 L 58.5 234 L 56.5 231 L 55.5 232 L 52.5 229 L 36 214.5 Q 21.3 198.2 12 176.5 L 9 164.5 L 7 161.5 L 5 146.5 L 3 140.5 L 4 135.5 Q 1.5 134 3 128.5 L 3 126.5 L 3.5 123 L 4.5 125 Q 13 96 34.5 80 L 56.5 67 L 81.5 61 Z " /><path fill="rgb(8,34,249)" stroke="rgb(8,34,249)" stroke-width="1" opacity="0.9921568627450981" d="M 145.5 63 L 149.5 68 L 145.5 63 Z " /><path fill="rgb(8,34,249)" stroke="rgb(8,34,249)" stroke-width="1" opacity="0.9921568627450981" d="M 152.5 70 L 153.5 72 L 152.5 70 Z " /><path fill="rgb(8,34,249)" stroke="rgb(8,34,249)" stroke-width="1" opacity="0.9921568627450981" d="M 115.5 89 L 117 89.5 L 114.5 91 L 115.5 89 Z " /><path fill="rgb(8,34,249)" stroke="rgb(8,34,249)" stroke-width="1" opacity="0.9921568627450981" d="M 110.5 90 L 113 91.5 L 111.5 91 L 110.5 90 Z " /><path fill="rgb(8,34,249)" stroke="rgb(8,34,249)" stroke-width="1" opacity="0.9921568627450981" d="M 101.5 97 L 100.5 99 L 101.5 97 Z " /><path fill="rgb(8,34,249)" stroke="rgb(8,34,249)" stroke-width="1" opacity="0.9921568627450981" d="M 165.5 103 L 166.5 105 L 165.5 103 Z " /><path fill="rgb(8,34,249)" stroke="rgb(8,34,249)" stroke-width="1" opacity="0.9921568627450981" d="M 93.5 105 L 92.5 107 L 93.5 105 Z " /><path fill="rgb(8,34,249)" stroke="rgb(8,34,249)" stroke-width="1" opacity="0.9921568627450981" d="M 167.5 106 L 168.5 108 L 167.5 106 Z " /><path fill="rgb(8,34,249)" stroke="rgb(8,34,249)" stroke-width="1" opacity="0.9921568627450981" d="M 73.5 109 L 71.5 112 L 73.5 109 Z " /><path fill="rgb(8,34,249)" stroke="rgb(8,34,249)" stroke-width="1" opacity="0.9921568627450981" d="M 174.5 113 L 175 118 L 173 117.5 L 174.5 113 Z " /><path fill="rgb(8,34,249)" stroke="rgb(8,34,249)" stroke-width="1" opacity="0.9921568627450981" d="M 67.5 115 L 65.5 118 L 67.5 115 Z " /><path fill="rgb(8,34,249)" stroke="rgb(8,34,249)" stroke-width="1" opacity="0.9921568627450981" d="M 194.5 145 L 192.5 148 L 194.5 145 Z " /><path fill="rgb(8,34,249)" stroke="rgb(8,34,249)" stroke-width="1" opacity="0.9921568627450981" d="M 187.5 152 L 186.5 154 L 187.5 152 Z " /><path fill="rgb(8,34,249)" stroke="rgb(8,34,249)" stroke-width="1" opacity="0.9921568627450981" d="M 168.5 155 L 167.5 157 L 168.5 155 Z " /><path fill="rgb(8,34,249)" stroke="rgb(8,34,249)" stroke-width="1" opacity="0.9921568627450981" d="M 92.5 156 L 93.5 158 L 92.5 156 Z " /><path fill="rgb(8,34,249)" stroke="rgb(8,34,249)" stroke-width="1" opacity="0.9921568627450981" d="M 45.5 157 L 46 159.5 L 45 159.5 L 45.5 157 Z " /><path fill="rgb(8,34,249)" stroke="rgb(8,34,249)" stroke-width="1" opacity="0.9921568627450981" d="M 172.5 163 L 173 204 L 165.5 208 L 166 206.5 L 166 167.5 L 167.5 166 L 172.5 163 Z " /><path fill="rgb(8,34,249)" stroke="rgb(8,34,249)" stroke-width="1" opacity="0.9921568627450981" d="M 158.5 165 L 157.5 167 L 158.5 165 Z " /><path fill="rgb(8,34,249)" stroke="rgb(8,34,249)" stroke-width="1" opacity="0.9921568627450981" d="M 140.5 173 L 143 173.5 L 140.5 174 L 140.5 173 Z " /><path fill="rgb(8,34,249)" stroke="rgb(8,34,249)" stroke-width="1" opacity="0.9921568627450981" d="M 232.5 203 L 231.5 205 L 232.5 203 Z " /><path fill="rgb(8,34,249)" stroke="rgb(8,34,249)" stroke-width="1" opacity="0.9921568627450981" d="M 225.5 212 L 223.5 215 L 225.5 212 Z " /><path fill="rgb(8,34,249)" stroke="rgb(8,34,249)" stroke-width="1" opacity="0.9921568627450981" d="M 215.5 222 L 213.5 225 L 215.5 222 Z " /><path fill="rgb(8,34,249)" stroke="rgb(8,34,249)" stroke-width="1" opacity="0.9921568627450981" d="M 122.5 255 L 125 255.5 L 122.5 256 L 122.5 255 Z " /><path fill="rgb(8,34,249)" stroke="rgb(8,34,249)" stroke-width="1" opacity="0.9921568627450981" d="M 135.5 255 L 138 255.5 L 135.5 256 L 135.5 255 Z " /><path fill="rgb(0,0,0)" stroke="rgb(0,0,0)" stroke-width="1" opacity="0" d="M 0 0 L 261 0 L 261 261 L 0 261 L 0 0 Z M 114 2 L 92 7 L 74 14 L 60 22 L 46 33 Q 28 49 16 71 L 8 91 L 3 113 L 3 146 L 8 168 L 16 188 L 23 200 L 34 214 Q 50 231 72 243 L 92 251 L 114 256 L 147 256 L 169 251 L 189 243 L 201 236 L 215 225 Q 232 209 244 188 L 252 168 L 257 146 L 257 113 L 252 91 L 244 71 L 237 59 L 226 45 Q 215 32 201 22 L 178 10 L 162 6 L 159 4 L 148 3 L 147 2 L 114 2 Z " /><path fill="rgb(0,0,0)" stroke="rgb(0,0,0)" stroke-width="1" opacity="0" d="M 123.5 89 L 136.5 89 L 150.5 93 Q 160.5 98 167 106.5 L 174 120.5 L 175 137.5 Q 171.1 155.6 158.5 165 L 145.5 172 L 136.5 174 L 123.5 174 Q 104 170.5 94 157.5 L 86 142.5 L 85 125.5 Q 88.9 107.4 101.5 98 L 109.5 93 L 123.5 89 Z " /><path fill="rgb(0,0,255)" stroke="rgb(0,0,255)" stroke-width="1" opacity="1" d="M 154.5 5 L 157.5 6 L 159.5 6 Q 186.8 12.2 205 27.5 L 203.5 27 L 190.5 21 L 184.5 20 L 195 31.5 Q 207.1 44.9 213 64.5 L 216 78.5 L 216 97.5 Q 209.3 136.3 183.5 156 L 164.5 167 L 165.5 165 L 182 150.5 L 191 138.5 L 198 124.5 L 204 103.5 L 205 81.5 L 202 64.5 L 195 45.5 Q 185.3 26.7 169.5 14 L 161.5 8 L 154.5 6 L 154.5 5 Z " /><path fill="rgb(0,0,255)" stroke="rgb(0,0,255)" stroke-width="1" opacity="1" d="M 80.5 43 L 98.5 43 L 121.5 49 Q 142.6 57.9 156 74.5 L 165 87.5 L 168 94.5 L 166 93.5 L 151.5 77 L 139.5 68 L 122.5 60 L 104.5 55 L 83.5 54 L 82.5 55 L 74.5 55 Q 71.6 57.6 65.5 57 L 46.5 64 Q 27.7 73.7 15 89.5 L 9 97.5 L 6.5 105 L 6 102.5 L 7 99.5 L 11 84.5 L 14.5 78 L 15.5 84 L 31.5 65 L 43.5 56 L 56.5 49 L 80.5 43 Z " /><path fill="rgb(0,0,255)" stroke="rgb(0,0,255)" stroke-width="1" opacity="1" d="M 108.5 91 L 111 91.5 L 98 99 L 87 114.5 L 84 124.5 L 84 137.5 L 87 148.5 L 96 162 L 105.5 169 L 117.5 174 L 122.5 175 L 137.5 175 L 152.5 172 L 161 169 L 161 208.5 L 159.5 210 L 139.5 215 L 120.5 215 Q 82.5 208.5 63 183.5 L 51 164.5 L 47 151.5 Q 55.3 123.8 75.5 108 L 86.5 100 L 108.5 91 Z " /><path fill="rgb(0,0,255)" stroke="rgb(0,0,255)" stroke-width="1" opacity="1" d="M 44.5 173 Q 53.5 196.5 70.5 212 Q 85.7 227.3 107.5 236 L 122.5 241 L 133.5 243 L 158.5 244 L 159.5 243 L 167.5 243 L 178.5 241 L 195.5 235 L 204.5 230 L 203.5 232 Q 189.5 242.5 171.5 249 L 161.5 251 L 158.5 253 L 153.5 253 L 146.5 255 Q 135.6 253.6 128.5 256 L 127.5 255 L 113.5 255 L 112.5 254 L 101.5 253 L 98.5 251 L 85.5 248 L 79 244.5 L 83 243.5 Q 69.8 236.2 61 224.5 Q 44 206.2 44.5 173 Z " /><path fill="rgb(24,114,239)" stroke="rgb(24,114,239)" stroke-width="1" opacity="0.9764705882352941" d="M 102.5 28 L 116.5 28 L 134.5 33 Q 148.1 39.4 157 50.5 Q 164.2 59.3 168 71.5 L 170 82.5 L 170 94.5 L 169 94.5 Q 160.3 74.7 144.5 62 Q 131 50.5 111.5 45 L 101.5 43 L 76.5 43 L 69.5 45 L 73.5 40 Q 84.9 30.9 102.5 28 Z " /><path fill="rgb(24,114,239)" stroke="rgb(24,114,239)" stroke-width="1" opacity="0.9764705882352941" d="M 83.5 89 L 95.5 89 L 104 91.5 Q 78.4 100.4 63 119.5 Q 51.5 133 46 152.5 L 44 162.5 L 44 187.5 L 44.5 189 Q 35.5 180 31 166.5 L 29 156.5 L 29 142.5 L 31 132.5 L 37 118.5 L 50.5 103 Q 58.4 95.9 69.5 92 L 83.5 89 Z " /><path fill="rgb(24,114,239)" stroke="rgb(24,114,239)" stroke-width="1" opacity="0.9764705882352941" d="M 216.5 98 L 223 118.5 L 223 139.5 Q 217.1 169.1 197.5 185 Q 190.9 193 182 197 L 182 157.5 L 183.5 156 L 196 144.5 Q 211.7 126.7 216.5 98 Z " /><path fill="rgb(65,204,254)" stroke="rgb(65,204,254)" stroke-width="1" opacity="0.6901960784313725" d="M 113.5 2 L 117 2.5 L 113.5 3 L 113.5 2 Z " /><path fill="rgb(65,204,254)" stroke="rgb(65,204,254)" stroke-width="1" opacity="0.6901960784313725" d="M 143.5 2 L 147 2.5 L 143.5 3 L 143.5 2 Z " /><path fill="rgb(65,204,254)" stroke="rgb(65,204,254)" stroke-width="1" opacity="0.6901960784313725" d="M 106.5 3 L 109 3.5 L 104.5 5 L 104.5 4 L 106.5 3 Z " /><path fill="rgb(65,204,254)" stroke="rgb(65,204,254)" stroke-width="1" opacity="0.6901960784313725" d="M 151.5 3 L 156 4.5 L 154.5 5 L 151.5 4 L 151.5 3 Z " /><path fill="rgb(65,204,254)" stroke="rgb(65,204,254)" stroke-width="1" opacity="0.6901960784313725" d="M 101.5 4 L 103 4.5 L 99.5 6 L 99.5 5 L 101.5 4 Z " /><path fill="rgb(65,204,254)" stroke="rgb(65,204,254)" stroke-width="1" opacity="0.6901960784313725" d="M 157.5 4 L 161 5.5 L 159.5 6 L 157.5 4 Z " /><path fill="rgb(65,204,254)" stroke="rgb(65,204,254)" stroke-width="1" opacity="0.6901960784313725" d="M 88.5 8 L 87.5 10 L 88.5 8 Z " /><path fill="rgb(65,204,254)" stroke="rgb(65,204,254)" stroke-width="1" opacity="0.6901960784313725" d="M 85.5 9 L 84.5 11 L 81.5 12 L 82.5 10 L 85.5 9 Z " /><path fill="rgb(65,204,254)" stroke="rgb(65,204,254)" stroke-width="1" opacity="0.6901960784313725" d="M 174.5 9 L 175.5 11 L 174.5 9 Z " /><path fill="rgb(65,204,254)" stroke="rgb(65,204,254)" stroke-width="1" opacity="0.6901960784313725" d="M 177.5 10 L 178.5 12 L 177.5 10 Z " /><path fill="rgb(65,204,254)" stroke="rgb(65,204,254)" stroke-width="1" opacity="0.6901960784313725" d="M 73.5 14 L 75 14.5 L 70.5 17 L 71.5 15 L 73.5 14 Z " /><path fill="rgb(65,204,254)" stroke="rgb(65,204,254)" stroke-width="1" opacity="0.6901960784313725" d="M 68.5 17 L 67.5 19 L 65.5 20 L 66.5 18 L 68.5 17 Z " /><path fill="rgb(65,204,254)" stroke="rgb(65,204,254)" stroke-width="1" opacity="0.6901960784313725" d="M 61.5 21 L 60.5 23 L 57.5 25 L 59.5 22 L 61.5 21 Z " /><path fill="rgb(65,204,254)" stroke="rgb(65,204,254)" stroke-width="1" opacity="0.6901960784313725" d="M 198.5 21 L 203 24.5 L 200.5 23 L 198.5 21 Z " /><path fill="rgb(65,204,254)" stroke="rgb(65,204,254)" stroke-width="1" opacity="0.6901960784313725" d="M 55.5 25 L 53.5 28 L 55.5 25 Z " /><path fill="rgb(65,204,254)" stroke="rgb(65,204,254)" stroke-width="1" opacity="0.6901960784313725" d="M 204.5 25 L 205.5 27 L 204.5 25 Z " /><path fill="rgb(65,204,254)" stroke="rgb(65,204,254)" stroke-width="1" opacity="0.6901960784313725" d="M 51.5 28 L 48.5 32 L 51.5 28 Z " /><path fill="rgb(65,204,254)" stroke="rgb(65,204,254)" stroke-width="1" opacity="0.6901960784313725" d="M 208.5 28 L 211.5 32 L 208.5 28 Z " /><path fill="rgb(65,204,254)" stroke="rgb(65,204,254)" stroke-width="1" opacity="0.6901960784313725" d="M 45.5 33 L 34.5 45 L 45.5 33 Z " /><path fill="rgb(65,204,254)" stroke="rgb(65,204,254)" stroke-width="1" opacity="0.6901960784313725" d="M 214.5 33 L 225.5 45 L 214.5 33 Z " /><path fill="rgb(65,204,254)" stroke="rgb(65,204,254)" stroke-width="1" opacity="0.6901960784313725" d="M 32.5 47 L 29.5 51 L 32.5 47 Z " /><path fill="rgb(65,204,254)" stroke="rgb(65,204,254)" stroke-width="1" opacity="0.6901960784313725" d="M 227.5 47 L 230.5 51 L 227.5 47 Z " /><path fill="rgb(65,204,254)" stroke="rgb(65,204,254)" stroke-width="1" opacity="0.6901960784313725" d="M 28.5 52 L 26.5 55 L 28.5 52 Z " /><path fill="rgb(65,204,254)" stroke="rgb(65,204,254)" stroke-width="1" opacity="0.6901960784313725" d="M 231.5 52 L 233.5 55 L 231.5 52 Z " /><path fill="rgb(65,204,254)" stroke="rgb(65,204,254)" stroke-width="1" opacity="0.6901960784313725" d="M 25.5 56 L 24 58.5 L 22.5 61 L 23 59.5 L 25.5 56 Z " /><path fill="rgb(65,204,254)" stroke="rgb(65,204,254)" stroke-width="1" opacity="0.6901960784313725" d="M 234.5 56 L 238 60.5 L 236 59.5 L 234.5 56 Z " /><path fill="rgb(65,204,254)" stroke="rgb(65,204,254)" stroke-width="1" opacity="0.6901960784313725" d="M 20.5 64 L 19.5 66 L 20.5 64 Z " /><path fill="rgb(65,204,254)" stroke="rgb(65,204,254)" stroke-width="1" opacity="0.6901960784313725" d="M 239.5 64 L 240.5 66 L 239.5 64 Z " /><path fill="rgb(65,204,254)" stroke="rgb(65,204,254)" stroke-width="1" opacity="0.6901960784313725" d="M 16.5 70 L 17 71.5 L 15.5 74 L 15 72.5 L 16.5 70 Z " /><path fill="rgb(65,204,254)" stroke="rgb(65,204,254)" stroke-width="1" opacity="0.6901960784313725" d="M 243.5 70 L 245 73.5 L 244 73.5 L 243.5 70 Z " /><path fill="rgb(65,204,254)" stroke="rgb(65,204,254)" stroke-width="1" opacity="0.6901960784313725" d="M 12.5 80 L 11.5 82 L 12.5 80 Z " /><path fill="rgb(65,204,254)" stroke="rgb(65,204,254)" stroke-width="1" opacity="0.6901960784313725" d="M 247.5 80 L 248.5 82 L 247.5 80 Z " /><path fill="rgb(65,204,254)" stroke="rgb(65,204,254)" stroke-width="1" opacity="0.6901960784313725" d="M 11.5 83 L 10.5 85 L 11.5 83 Z " /><path fill="rgb(65,204,254)" stroke="rgb(65,204,254)" stroke-width="1" opacity="0.6901960784313725" d="M 248.5 83 L 249.5 85 L 248.5 83 Z " /><path fill="rgb(65,204,254)" stroke="rgb(65,204,254)" stroke-width="1" opacity="0.6901960784313725" d="M 124.5 88 L 136 88.5 L 124.5 89 L 124.5 88 Z " /><path fill="rgb(65,204,254)" stroke="rgb(65,204,254)" stroke-width="1" opacity="0.6901960784313725" d="M 137.5 89 L 141 89.5 L 137.5 90 L 137.5 89 Z " /><path fill="rgb(65,204,254)" stroke="rgb(65,204,254)" stroke-width="1" opacity="0.6901960784313725" d="M 108.5 93 L 107.5 95 L 102.5 98 L 103.5 96 L 108.5 93 Z " /><path fill="rgb(65,204,254)" stroke="rgb(65,204,254)" stroke-width="1" opacity="0.6901960784313725" d="M 151.5 93 L 158 97.5 L 156.5 97 Q 151.9 95.8 151.5 93 Z " /><path fill="rgb(65,204,254)" stroke="rgb(65,204,254)" stroke-width="1" opacity="0.6901960784313725" d="M 6.5 98 L 7 99.5 L 5.5 102 L 5 100.5 L 6.5 98 Z " /><path fill="rgb(65,204,254)" stroke="rgb(65,204,254)" stroke-width="1" opacity="0.6901960784313725" d="M 253.5 98 L 255 101.5 L 254 101.5 L 253.5 98 Z " /><path fill="rgb(65,204,254)" stroke="rgb(65,204,254)" stroke-width="1" opacity="0.6901960784313725" d="M 99.5 99 L 94.5 105 L 99.5 99 Z " /><path fill="rgb(65,204,254)" stroke="rgb(65,204,254)" stroke-width="1" opacity="0.6901960784313725" d="M 160.5 99 L 165.5 105 L 160.5 99 Z " /><path fill="rgb(65,204,254)" stroke="rgb(65,204,254)" stroke-width="1" opacity="0.6901960784313725" d="M 5.5 103 L 6 104.5 L 4.5 108 L 4 105.5 L 5.5 103 Z " /><path fill="rgb(65,204,254)" stroke="rgb(65,204,254)" stroke-width="1" opacity="0.6901960784313725" d="M 254.5 103 L 256 107.5 L 255 107.5 L 254.5 103 Z " /><path fill="rgb(65,204,254)" stroke="rgb(65,204,254)" stroke-width="1" opacity="0.6901960784313725" d="M 92.5 107 L 92 108.5 L 88.5 115 L 88 113.5 L 92.5 107 Z " /><path fill="rgb(65,204,254)" stroke="rgb(65,204,254)" stroke-width="1" opacity="0.6901960784313725" d="M 167.5 107 L 172 114.5 L 171 114.5 L 167.5 107 Z " /><path fill="rgb(65,204,254)" stroke="rgb(65,204,254)" stroke-width="1" opacity="0.6901960784313725" d="M 3.5 112 L 4 115.5 L 3 115.5 L 3.5 112 Z " /><path fill="rgb(65,204,254)" stroke="rgb(65,204,254)" stroke-width="1" opacity="0.6901960784313725" d="M 256.5 112 L 257 115.5 L 256 115.5 L 256.5 112 Z " /><path fill="rgb(65,204,254)" stroke="rgb(65,204,254)" stroke-width="1" opacity="0.6901960784313725" d="M 175.5 133 L 176 136.5 L 175 136.5 L 175.5 133 Z " /><path fill="rgb(65,204,254)" stroke="rgb(65,204,254)" stroke-width="1" opacity="0.6901960784313725" d="M 174.5 138 L 175 140.5 L 174 140.5 L 174.5 138 Z " /><path fill="rgb(65,204,254)" stroke="rgb(65,204,254)" stroke-width="1" opacity="0.6901960784313725" d="M 3.5 142 L 4 145.5 L 3 145.5 L 3.5 142 Z " /><path fill="rgb(65,204,254)" stroke="rgb(65,204,254)" stroke-width="1" opacity="0.6901960784313725" d="M 256.5 142 L 257 145.5 L 256 145.5 L 256.5 142 Z " /><path fill="rgb(65,204,254)" stroke="rgb(65,204,254)" stroke-width="1" opacity="0.6901960784313725" d="M 88.5 148 L 94 156.5 L 91 154.5 L 88 149.5 L 88.5 148 Z " /><path fill="rgb(65,204,254)" stroke="rgb(65,204,254)" stroke-width="1" opacity="0.6901960784313725" d="M 171.5 148 L 172 149.5 L 166.5 157 L 168 154.5 L 171.5 148 Z " /><path fill="rgb(65,204,254)" stroke="rgb(65,204,254)" stroke-width="1" opacity="0.6901960784313725" d="M 4.5 150 L 6 154.5 L 5 154.5 L 4.5 150 Z " /><path fill="rgb(65,204,254)" stroke="rgb(65,204,254)" stroke-width="1" opacity="0.6901960784313725" d="M 255.5 150 L 256 152.5 L 254.5 155 L 254 153.5 L 255.5 150 Z " /><path fill="rgb(65,204,254)" stroke="rgb(65,204,254)" stroke-width="1" opacity="0.6901960784313725" d="M 5.5 156 L 7 159.5 L 6 159.5 L 5.5 156 Z " /><path fill="rgb(65,204,254)" stroke="rgb(65,204,254)" stroke-width="1" opacity="0.6901960784313725" d="M 254.5 156 L 255 157.5 L 253.5 160 L 253 158.5 L 254.5 156 Z " /><path fill="rgb(65,204,254)" stroke="rgb(65,204,254)" stroke-width="1" opacity="0.6901960784313725" d="M 94.5 158 L 99.5 164 L 94.5 158 Z " /><path fill="rgb(65,204,254)" stroke="rgb(65,204,254)" stroke-width="1" opacity="0.6901960784313725" d="M 165.5 158 L 160.5 164 L 165.5 158 Z " /><path fill="rgb(65,204,254)" stroke="rgb(65,204,254)" stroke-width="1" opacity="0.6901960784313725" d="M 102.5 165 L 103.5 167 L 102.5 165 Z " /><path fill="rgb(65,204,254)" stroke="rgb(65,204,254)" stroke-width="1" opacity="0.6901960784313725" d="M 157.5 165 L 156.5 167 L 157.5 165 Z " /><path fill="rgb(65,204,254)" stroke="rgb(65,204,254)" stroke-width="1" opacity="0.6901960784313725" d="M 105.5 167 L 112 170.5 L 110.5 171 Q 105.9 169.8 105.5 167 Z " /><path fill="rgb(65,204,254)" stroke="rgb(65,204,254)" stroke-width="1" opacity="0.6901960784313725" d="M 154.5 167 L 153.5 169 L 148.5 171 L 148.5 170 L 154.5 167 Z " /><path fill="rgb(65,204,254)" stroke="rgb(65,204,254)" stroke-width="1" opacity="0.6901960784313725" d="M 9.5 170 L 10.5 172 L 9.5 170 Z " /><path fill="rgb(65,204,254)" stroke="rgb(65,204,254)" stroke-width="1" opacity="0.6901960784313725" d="M 10.5 173 L 13 177.5 L 11 176.5 L 10.5 173 Z " /><path fill="rgb(65,204,254)" stroke="rgb(65,204,254)" stroke-width="1" opacity="0.6901960784313725" d="M 120.5 173 L 123 173.5 L 120.5 174 L 120.5 173 Z " /><path fill="rgb(65,204,254)" stroke="rgb(65,204,254)" stroke-width="1" opacity="0.6901960784313725" d="M 137.5 173 L 140 173.5 L 137.5 174 L 137.5 173 Z " /><path fill="rgb(65,204,254)" stroke="rgb(65,204,254)" stroke-width="1" opacity="0.6901960784313725" d="M 249.5 173 L 248.5 175 L 249.5 173 Z " /><path fill="rgb(65,204,254)" stroke="rgb(65,204,254)" stroke-width="1" opacity="0.6901960784313725" d="M 248.5 176 L 247.5 178 L 248.5 176 Z " /><path fill="rgb(65,204,254)" stroke="rgb(65,204,254)" stroke-width="1" opacity="0.6901960784313725" d="M 15.5 184 L 18 188.5 L 16 187.5 L 15.5 184 Z " /><path fill="rgb(65,204,254)" stroke="rgb(65,204,254)" stroke-width="1" opacity="0.6901960784313725" d="M 244.5 184 L 245 185.5 L 243.5 188 L 243 186.5 L 244.5 184 Z " /><path fill="rgb(65,204,254)" stroke="rgb(65,204,254)" stroke-width="1" opacity="0.6901960784313725" d="M 18.5 190 L 21 193.5 L 19 192.5 L 18.5 190 Z " /><path fill="rgb(65,204,254)" stroke="rgb(65,204,254)" stroke-width="1" opacity="0.6901960784313725" d="M 240.5 192 L 239.5 194 L 240.5 192 Z " /><path fill="rgb(65,204,254)" stroke="rgb(65,204,254)" stroke-width="1" opacity="0.6901960784313725" d="M 22.5 197 L 26 201.5 L 23 199.5 L 22.5 197 Z " /><path fill="rgb(65,204,254)" stroke="rgb(65,204,254)" stroke-width="1" opacity="0.6901960784313725" d="M 237.5 197 L 237 198.5 L 234.5 202 L 236 199.5 L 237.5 197 Z " /><path fill="rgb(65,204,254)" stroke="rgb(65,204,254)" stroke-width="1" opacity="0.6901960784313725" d="M 26.5 203 L 28.5 206 L 26.5 203 Z " /><path fill="rgb(65,204,254)" stroke="rgb(65,204,254)" stroke-width="1" opacity="0.6901960784313725" d="M 233.5 203 L 231.5 206 L 233.5 203 Z " /><path fill="rgb(65,204,254)" stroke="rgb(65,204,254)" stroke-width="1" opacity="0.6901960784313725" d="M 29.5 207 L 32.5 211 L 29.5 207 Z " /><path fill="rgb(65,204,254)" stroke="rgb(65,204,254)" stroke-width="1" opacity="0.6901960784313725" d="M 230.5 207 L 227.5 211 L 230.5 207 Z " /><path fill="rgb(65,204,254)" stroke="rgb(65,204,254)" stroke-width="1" opacity="0.6901960784313725" d="M 34.5 213 L 45.5 225 L 34.5 213 Z " /><path fill="rgb(65,204,254)" stroke="rgb(65,204,254)" stroke-width="1" opacity="0.6901960784313725" d="M 225.5 213 L 214.5 225 L 225.5 213 Z " /><path fill="rgb(65,204,254)" stroke="rgb(65,204,254)" stroke-width="1" opacity="0.6901960784313725" d="M 48.5 226 L 51.5 230 L 48.5 226 Z " /><path fill="rgb(65,204,254)" stroke="rgb(65,204,254)" stroke-width="1" opacity="0.6901960784313725" d="M 211.5 226 L 208.5 230 L 211.5 226 Z " /><path fill="rgb(65,204,254)" stroke="rgb(65,204,254)" stroke-width="1" opacity="0.6901960784313725" d="M 53.5 230 L 55.5 233 L 53.5 230 Z " /><path fill="rgb(65,204,254)" stroke="rgb(65,204,254)" stroke-width="1" opacity="0.6901960784313725" d="M 205.5 231 L 204.5 233 L 205.5 231 Z " /><path fill="rgb(65,204,254)" stroke="rgb(65,204,254)" stroke-width="1" opacity="0.6901960784313725" d="M 57.5 233 L 62 236.5 L 60.5 236 L 57.5 233 Z " /><path fill="rgb(65,204,254)" stroke="rgb(65,204,254)" stroke-width="1" opacity="0.6901960784313725" d="M 202.5 233 L 200.5 236 L 198.5 237 L 199.5 235 L 202.5 233 Z " /><path fill="rgb(65,204,254)" stroke="rgb(65,204,254)" stroke-width="1" opacity="0.6901960784313725" d="M 65.5 238 L 66.5 240 L 65.5 238 Z " /><path fill="rgb(65,204,254)" stroke="rgb(65,204,254)" stroke-width="1" opacity="0.6901960784313725" d="M 71.5 242 L 75 243.5 L 73.5 244 L 71.5 242 Z " /><path fill="rgb(65,204,254)" stroke="rgb(65,204,254)" stroke-width="1" opacity="0.6901960784313725" d="M 187.5 242 L 189 242.5 L 185.5 244 L 185.5 243 L 187.5 242 Z " /><path fill="rgb(65,204,254)" stroke="rgb(65,204,254)" stroke-width="1" opacity="0.6901960784313725" d="M 81.5 246 L 82.5 248 L 81.5 246 Z " /><path fill="rgb(65,204,254)" stroke="rgb(65,204,254)" stroke-width="1" opacity="0.6901960784313725" d="M 178.5 246 L 177.5 248 L 178.5 246 Z " /><path fill="rgb(65,204,254)" stroke="rgb(65,204,254)" stroke-width="1" opacity="0.6901960784313725" d="M 84.5 247 L 85.5 249 L 84.5 247 Z " /><path fill="rgb(65,204,254)" stroke="rgb(65,204,254)" stroke-width="1" opacity="0.6901960784313725" d="M 175.5 247 L 174.5 249 L 175.5 247 Z " /><path fill="rgb(65,204,254)" stroke="rgb(65,204,254)" stroke-width="1" opacity="0.6901960784313725" d="M 99.5 252 L 103 253.5 L 101.5 254 L 99.5 252 Z " /><path fill="rgb(65,204,254)" stroke="rgb(65,204,254)" stroke-width="1" opacity="0.6901960784313725" d="M 159.5 252 L 161 252.5 L 157.5 254 L 157.5 253 L 159.5 252 Z " /><path fill="rgb(65,204,254)" stroke="rgb(65,204,254)" stroke-width="1" opacity="0.6901960784313725" d="M 104.5 253 L 109 254.5 L 106.5 255 L 104.5 253 Z " /><path fill="rgb(65,204,254)" stroke="rgb(65,204,254)" stroke-width="1" opacity="0.6901960784313725" d="M 154.5 253 L 156 253.5 L 151.5 255 L 151.5 254 L 154.5 253 Z " /><path fill="rgb(65,204,254)" stroke="rgb(65,204,254)" stroke-width="1" opacity="0.6901960784313725" d="M 113.5 255 L 117 255.5 L 113.5 256 L 113.5 255 Z " /><path fill="rgb(65,204,254)" stroke="rgb(65,204,254)" stroke-width="1" opacity="0.6901960784313725" d="M 143.5 255 L 147 255.5 L 143.5 256 L 143.5 255 Z " /></svg>